<svg width="32" height="32" xmlns="http://www.w3.org/2000/svg" version="1.1">

 <g>
  <title>Layer 1</title>
  <path stroke="null" id="svg_1" fill="#1976DA" d="m16.70246,1.24439c0.58815,0.32782 1.14766,0.66433 1.71168,1.02518c1.31911,0.82424 2.65505,1.61284 4.02396,2.36283c0.14332,0.07859 0.28664,0.15718 0.43431,0.23816c0.57717,0.31584 1.15471,0.63103 1.73417,0.9432c4.08695,2.20193 4.08695,2.20193 4.51636,3.26104c0.33288,1.43656 0.38947,2.83008 0.39275,4.29706c0.0024,0.37833 0.0024,0.37833 0.00485,0.7643c0.00242,0.53044 0.00356,1.06089 0.00348,1.59134c0.00105,0.80869 0.0098,1.61711 0.01888,2.42575c0.00141,0.51742 0.00236,1.03483 0.00282,1.55225c0.00345,0.23996 0.0069,0.47991 0.01046,0.72714c-0.00931,1.43072 -0.16493,2.55286 -1.08214,3.7308c-0.48915,0.41593 -0.48915,0.41593 -1.00974,0.68638c-0.19396,0.10433 -0.38791,0.20866 -0.58775,0.31614c-0.20615,0.1048 -0.4123,0.2096 -0.6247,0.31757c-0.43531,0.23228 -0.87042,0.46487 -1.30535,0.69779c-0.21612,0.11394 -0.43224,0.22788 -0.6549,0.34527c-0.88932,0.47619 -1.75435,0.98512 -2.61925,1.49882c-0.30799,0.18041 -0.61611,0.36064 -0.92435,0.54068c-0.47483,0.27773 -0.94892,0.5564 -1.42159,0.83735c-0.49258,0.29226 -0.98743,0.58088 -1.48282,0.86894c-0.14905,0.0897 -0.2981,0.1794 -0.45168,0.27182c-1.01952,0.58674 -1.01952,0.58674 -1.65415,0.57869c-0.70174,-0.32172 -1.37258,-0.67949 -2.03825,-1.06117c-0.15428,-0.08742 -0.30856,-0.17484 -0.46751,-0.26491c-1.56829,-0.89647 -3.10731,-1.83554 -4.6422,-2.781c-2.27025,-1.50389 -2.27025,-1.50389 -4.7656,-2.58176c-0.8572,-0.40346 -0.99086,-0.76853 -1.29567,-1.61879c-0.09599,-0.87335 -0.08957,-1.73925 -0.07883,-2.61649c0.00045,-0.25264 0.0009,-0.50528 0.00136,-0.76557c0.00161,-0.53354 0.00495,-1.06708 0.0099,-1.6006c0.00746,-0.81212 0.00984,-1.62414 0.01126,-2.43628c0.00221,-0.51976 0.0047,-1.03952 0.00751,-1.55927c0.00102,-0.24091 0.00204,-0.48182 0.00309,-0.73003c0.03592,-3.56983 0.03592,-3.56983 0.63785,-4.60124c0.88807,-0.75895 1.87472,-1.30921 2.9063,-1.88271c0.45463,-0.25786 0.90914,-0.51592 1.36353,-0.77415c0.23029,-0.13012 0.46057,-0.26025 0.69784,-0.39432c1.05708,-0.60123 2.10337,-1.21804 3.14876,-1.83685c0.17979,-0.10588 0.35958,-0.21177 0.54481,-0.32086c0.17325,-0.10237 0.34649,-0.20474 0.52499,-0.31022c0.16893,-0.09931 0.33786,-0.19863 0.51191,-0.30095c0.36945,-0.22567 0.7321,-0.46123 1.08951,-0.70327c0.18751,-0.12567 0.37502,-0.25134 0.56821,-0.38082c0.16777,-0.11646 0.33554,-0.23291 0.50839,-0.3529c0.67877,-0.30107 1.01174,-0.2165 1.71755,-0.00433zm-0.72071,8.08908c-0.55798,0.31101 -1.11179,0.62463 -1.66007,0.95057c-0.74229,0.39761 -0.74229,0.39761 -1.59719,0.68989c-1.33399,0.52488 -1.33399,0.52488 -2.26817,1.50529c-0.38216,1.61796 -0.2289,3.32144 -0.061,4.95912c0.061,0.65829 0.061,0.65829 0.04692,1.22881c0.00151,0.83447 0.06927,1.27361 0.7044,1.88507c0.61066,0.43116 1.23478,0.80179 1.89221,1.16764c0.21801,0.13208 0.43603,0.26416 0.66065,0.40024c1.11478,0.71535 1.11478,0.71535 2.40183,0.86713c2.04383,-0.58473 4.14596,-1.41018 5.40584,-3.09303c0.38775,-1.2331 0.4508,-2.40026 0.43543,-3.67941c0.00124,-0.24016 0.00124,-0.24016 0.0025,-0.48517c-0.01407,-1.89717 -0.01407,-1.89717 -0.88608,-3.55965c-0.54994,-0.41215 -1.09289,-0.72893 -1.71397,-1.03895c-0.24355,-0.14088 -0.24355,-0.14088 -0.49203,-0.2846c-0.43513,-0.25086 -0.87604,-0.48369 -1.32476,-0.71249c-0.15066,-0.07864 -0.30132,-0.15728 -0.45654,-0.2383c-0.36243,-0.1889 -0.72607,-0.37578 -1.08998,-0.56218z"/>
  <path id="svg_48" fill="#000000" d="m393,226c2,1 2,1 2,1l-2,-1z"/>
  <path id="svg_49" fill="#000000"/>
  <path id="svg_50" fill="#000000"/>
  <path id="svg_51" fill="#000000"/>
  <path id="svg_52" fill="#000000"/>
  <path id="svg_53" fill="#000000"/>
  <path id="svg_54" fill="#000000"/>
  <path id="svg_55" fill="#000000"/>
  <path id="svg_56" fill="#000000"/>
  <path id="svg_57" fill="#000000"/>
  <path id="svg_58" fill="#000000"/>
  <path id="svg_59" fill="#000000"/>
  <path id="svg_60" fill="#000000"/>
  <path id="svg_61" fill="#000000"/>
  <path id="svg_62" fill="#000000"/>
  <path id="svg_63" fill="#000000"/>
  <path id="svg_64" fill="#000000"/>
  <path id="svg_65" fill="#000000"/>
  <path id="svg_66" fill="#000000"/>
  <path id="svg_67" fill="#000000"/>
  <path id="svg_68" fill="#000000"/>
  <path id="svg_69" fill="#000000"/>
  <path id="svg_70" fill="#000000"/>
  <path id="svg_71" fill="#000000"/>
  <path id="svg_72" fill="#000000"/>
  <path id="svg_73" fill="#000000"/>
  <path id="svg_74" fill="#000000"/>
  <path id="svg_75" fill="#000000"/>
  <path id="svg_76" fill="#000000"/>
  <path id="svg_77" fill="#000000"/>
  <path id="svg_78" fill="#000000"/>
  <path id="svg_79" fill="#000000"/>
  <path id="svg_80" fill="#000000"/>
  <path id="svg_81" fill="#000000"/>
  <path id="svg_82" fill="#000000"/>
  <path id="svg_83" fill="#000000"/>
  <path id="svg_84" fill="#000000"/>
  <path id="svg_85" fill="#000000"/>
  <path id="svg_86" fill="#000000"/>
  <path id="svg_87" fill="#000000"/>
  <path id="svg_88" fill="#000000"/>
  <path id="svg_89" fill="#000000"/>
  <path id="svg_90" fill="#000000"/>
  <path id="svg_91" fill="#000000"/>
  <path id="svg_92" fill="#000000"/>
  <path id="svg_93" fill="#000000"/>
  <path id="svg_94" fill="#000000"/>
  <path id="svg_95" fill="#000000"/>
  <path id="svg_96" fill="#000000"/>
  <path id="svg_97" fill="#000000"/>
  <path id="svg_98" fill="#000000"/>
  <path id="svg_99" fill="#000000"/>
  <path id="svg_100" fill="#000000"/>
  <path id="svg_101" fill="#000000"/>
  <path id="svg_102" fill="#000000"/>
  <path id="svg_103" fill="#000000"/>
  <path id="svg_104" fill="#000000"/>
  <path id="svg_105" fill="#000000"/>
  <path id="svg_106" fill="#0000FF"/>
  <path id="svg_107" fill="#000000"/>
  <path id="svg_108" fill="#000000"/>
  <path id="svg_109" fill="#000000"/>
  <path id="svg_110" fill="#0000FF"/>
  <path id="svg_111" fill="#000000"/>
  <path id="svg_112" fill="#000000"/>
  <path id="svg_113" fill="#0000FF"/>
  <path id="svg_114" fill="#0000FF"/>
  <path id="svg_115" fill="#000000"/>
  <path id="svg_116" fill="#000000"/>
  <path id="svg_117" fill="#000000"/>
  <path id="svg_118" fill="#000000"/>
  <path id="svg_119" fill="#000000"/>
  <path id="svg_120" fill="#000000"/>
  <path id="svg_121" fill="#000000"/>
  <path id="svg_122" fill="#000000"/>
  <path id="svg_123" fill="#000000"/>
  <path id="svg_124" fill="#000000"/>
  <path id="svg_125" fill="#0000FF"/>
  <path id="svg_126" fill="#000000"/>
  <path id="svg_127" fill="#0000FF"/>
  <path id="svg_128" fill="#00FFFF"/>
  <path id="svg_129" fill="#000000"/>
  <path id="svg_130" fill="#000000"/>
  <path id="svg_131" fill="#000000"/>
  <path id="svg_132" fill="#000000"/>
  <path id="svg_133" fill="#000000"/>
 </g>
</svg>